#Comment line ignore any data following # character 
#Hierarchical Translation and Rotation (.htr) file 
[Header]	
#Header keywords are followed by a single value 
FileType HTR		#Single word string
DataType HTRS		#Translation followed by rotation and scale data
FileVersion 1		#integer
NumSegments 84		#integer
NumFrames 2		#integer
DataFrameRate 30		#integer, data frame rate in this file
EulerRotationOrder ZYX
CalibrationUnits mm
RotationUnits Degrees
GlobalAxisofGravity Y
BoneLengthAxis Y
ScaleFactor 1.00
[SegmentNames&Hierarchy]
#CHILD	PARENT
MASTER GLOBAL
root MASTER
chest root
L_mid_tent01 root
R_mid_tent01 root
spine01 root
Bip01_Neck chest
L_humerus chest
R_humerus chest
weapon_bone chest
Bip01_Head Bip01_Neck
eye_left_bone Bip01_Head
eye_right_bone Bip01_Head
L_forearm L_humerus
L_front_hand L_forearm
L_weapon_bone L_forearm
L_front_hand01_01 L_front_hand
L_front_hand02_01 L_front_hand
L_front_hand03_01 L_front_hand
L_front_hand01_02 L_front_hand01_01
L_front_hand02_02 L_front_hand02_01
L_front_hand03_02 L_front_hand03_01
R_forearm R_humerus
R_front_hand R_forearm
R_weapon_bone R_forearm
R_front_hand01_01 R_front_hand
R_front_hand02_01 R_front_hand
R_front_hand03_01 R_front_hand
R_front_hand01_02 R_front_hand01_01
R_front_hand02_02 R_front_hand02_01
R_front_hand03_02 R_front_hand03_01
null_rope01_connect L_mid_tent01
Rope1_Seg01 null_rope01_connect
Rope1_Seg02 Rope1_Seg01
Rope1_Seg03 Rope1_Seg02
Rope1_Seg04 Rope1_Seg03
Rope1_Seg05 Rope1_Seg04
Rope1_Seg06 Rope1_Seg05
Rope1_Seg07 Rope1_Seg06
Rope1_Seg09 Rope1_Seg07
L_mid_hand01 Rope1_Seg09
L_mid_hand02 Rope1_Seg09
L_mid_hand03 Rope1_Seg09
null_rope02_connect R_mid_tent01
Rope2_Seg01 null_rope02_connect
Rope2_Seg02 Rope2_Seg01
Rope2_Seg03 Rope2_Seg02
Rope2_Seg04 Rope2_Seg03
Rope2_Seg05 Rope2_Seg04
Rope2_Seg06 Rope2_Seg05
Rope2_Seg07 Rope2_Seg06
Rope2_Seg09 Rope2_Seg07
R_mid_hand01 Rope2_Seg09
R_mid_hand02 Rope2_Seg09
R_mid_hand03 Rope2_Seg09
spine02 spine01
spine03 spine02
pelvis spine03
null_rope03_connect pelvis
null_rope04_connect pelvis
Rope3_Seg01 null_rope03_connect
Rope3_Seg02 Rope3_Seg01
Rope3_Seg03 Rope3_Seg02
Rope3_Seg04 Rope3_Seg03
Rope3_Seg05 Rope3_Seg04
Rope3_Seg06 Rope3_Seg05
Rope3_Seg07 Rope3_Seg06
Rope3_Seg08 Rope3_Seg07
Rope3_Seg09 Rope3_Seg08
R_rear_hand01 Rope3_Seg09
R_rear_hand02 Rope3_Seg09
R_rear_hand03 Rope3_Seg09
Rope4_Seg01 null_rope04_connect
Rope4_Seg02 Rope4_Seg01
Rope4_Seg03 Rope4_Seg02
Rope4_Seg04 Rope4_Seg03
Rope4_Seg05 Rope4_Seg04
Rope4_Seg06 Rope4_Seg05
Rope4_Seg07 Rope4_Seg06
Rope4_Seg08 Rope4_Seg07
Rope4_Seg09 Rope4_Seg08
L_rear_hand01 Rope4_Seg09
L_rear_hand02 Rope4_Seg09
L_rear_hand03 Rope4_Seg09
[BasePosition]
#SegmentName Tx, Ty, Tz, Rx, Ry, Rz, BoneLength
MASTER 0.000000 0.000000 0.000000 -90.000000 0.000000 0.000000 10.000000 
root 0.000000 0.000000 0.000000 0.000000 0.000000 0.000000 10.000000 
chest 0.000000 0.000000 0.000000 0.000000 0.000000 0.000000 10.000000 
L_mid_tent01 0.000000 0.000000 0.000000 0.000000 0.000000 0.000000 10.000000 
R_mid_tent01 0.000000 0.000000 0.000000 0.000000 0.000000 0.000000 10.000000 
spine01 0.000000 0.000000 0.000000 0.000000 0.000000 0.000000 10.000000 
Bip01_Neck 0.000000 0.000000 0.000000 0.000000 0.000000 0.000000 10.000000 
L_humerus 0.000000 0.000000 0.000000 0.000000 0.000000 0.000000 10.000000 
R_humerus 0.000000 0.000000 0.000000 0.000000 0.000000 0.000000 10.000000 
weapon_bone 0.000000 0.000000 0.000000 0.000000 0.000000 0.000000 10.000000 
Bip01_Head 0.000000 0.000000 0.000000 0.000000 0.000000 0.000000 10.000000 
eye_left_bone 0.000000 0.000000 0.000000 0.000000 0.000000 0.000000 10.000000 
eye_right_bone 0.000000 0.000000 0.000000 0.000000 0.000000 0.000000 10.000000 
L_forearm 0.000000 0.000000 0.000000 0.000000 0.000000 0.000000 10.000000 
L_front_hand 0.000000 0.000000 0.000000 0.000000 0.000000 0.000000 10.000000 
L_weapon_bone 0.000000 0.000000 0.000000 0.000000 0.000000 0.000000 10.000000 
L_front_hand01_01 0.000000 0.000000 0.000000 0.000000 0.000000 0.000000 10.000000 
L_front_hand02_01 0.000000 0.000000 0.000000 0.000000 0.000000 0.000000 10.000000 
L_front_hand03_01 0.000000 0.000000 0.000000 0.000000 0.000000 0.000000 10.000000 
L_front_hand01_02 0.000000 0.000000 0.000000 0.000000 0.000000 0.000000 10.000000 
L_front_hand02_02 0.000000 0.000000 0.000000 0.000000 0.000000 0.000000 10.000000 
L_front_hand03_02 0.000000 0.000000 0.000000 0.000000 0.000000 0.000000 10.000000 
R_forearm 0.000000 0.000000 0.000000 0.000000 0.000000 0.000000 10.000000 
R_front_hand 0.000000 0.000000 0.000000 0.000000 0.000000 0.000000 10.000000 
R_weapon_bone 0.000000 0.000000 0.000000 0.000000 0.000000 0.000000 10.000000 
R_front_hand01_01 0.000000 0.000000 0.000000 0.000000 0.000000 0.000000 10.000000 
R_front_hand02_01 0.000000 0.000000 0.000000 0.000000 0.000000 0.000000 10.000000 
R_front_hand03_01 0.000000 0.000000 0.000000 0.000000 0.000000 0.000000 10.000000 
R_front_hand01_02 0.000000 0.000000 0.000000 0.000000 0.000000 0.000000 10.000000 
R_front_hand02_02 0.000000 0.000000 0.000000 0.000000 0.000000 0.000000 10.000000 
R_front_hand03_02 0.000000 0.000000 0.000000 0.000000 0.000000 0.000000 10.000000 
null_rope01_connect 0.000000 0.000000 0.000000 0.000000 0.000000 0.000000 10.000000 
Rope1_Seg01 0.000000 0.000000 0.000000 0.000000 0.000000 0.000000 10.000000 
Rope1_Seg02 0.000000 0.000000 0.000000 0.000000 0.000000 0.000000 10.000000 
Rope1_Seg03 0.000000 0.000000 0.000000 0.000000 0.000000 0.000000 10.000000 
Rope1_Seg04 0.000000 0.000000 0.000000 0.000000 0.000000 0.000000 10.000000 
Rope1_Seg05 0.000000 0.000000 0.000000 0.000000 0.000000 0.000000 10.000000 
Rope1_Seg06 0.000000 0.000000 0.000000 0.000000 0.000000 0.000000 10.000000 
Rope1_Seg07 0.000000 0.000000 0.000000 0.000000 0.000000 0.000000 10.000000 
Rope1_Seg09 0.000000 0.000000 0.000000 0.000000 0.000000 0.000000 10.000000 
L_mid_hand01 0.000000 0.000000 0.000000 0.000000 0.000000 0.000000 10.000000 
L_mid_hand02 0.000000 0.000000 0.000000 0.000000 0.000000 0.000000 10.000000 
L_mid_hand03 0.000000 0.000000 0.000000 0.000000 0.000000 0.000000 10.000000 
null_rope02_connect 0.000000 0.000000 0.000000 0.000000 0.000000 0.000000 10.000000 
Rope2_Seg01 0.000000 0.000000 0.000000 0.000000 0.000000 0.000000 10.000000 
Rope2_Seg02 0.000000 0.000000 0.000000 0.000000 0.000000 0.000000 10.000000 
Rope2_Seg03 0.000000 0.000000 0.000000 0.000000 0.000000 0.000000 10.000000 
Rope2_Seg04 0.000000 0.000000 0.000000 0.000000 0.000000 0.000000 10.000000 
Rope2_Seg05 0.000000 0.000000 0.000000 0.000000 0.000000 0.000000 10.000000 
Rope2_Seg06 0.000000 0.000000 0.000000 0.000000 0.000000 0.000000 10.000000 
Rope2_Seg07 0.000000 0.000000 0.000000 0.000000 0.000000 0.000000 10.000000 
Rope2_Seg09 0.000000 0.000000 0.000000 0.000000 0.000000 0.000000 10.000000 
R_mid_hand01 0.000000 0.000000 0.000000 0.000000 0.000000 0.000000 10.000000 
R_mid_hand02 0.000000 0.000000 0.000000 0.000000 0.000000 0.000000 10.000000 
R_mid_hand03 0.000000 0.000000 0.000000 0.000000 0.000000 0.000000 10.000000 
spine02 0.000000 0.000000 0.000000 0.000000 0.000000 0.000000 10.000000 
spine03 0.000000 0.000000 0.000000 0.000000 0.000000 0.000000 10.000000 
pelvis 0.000000 0.000000 0.000000 0.000000 0.000000 0.000000 10.000000 
null_rope03_connect 0.000000 0.000000 0.000000 0.000000 0.000000 0.000000 10.000000 
null_rope04_connect 0.000000 0.000000 0.000000 0.000000 0.000000 0.000000 10.000000 
Rope3_Seg01 0.000000 0.000000 0.000000 0.000000 0.000000 0.000000 10.000000 
Rope3_Seg02 0.000000 0.000000 0.000000 0.000000 0.000000 0.000000 10.000000 
Rope3_Seg03 0.000000 0.000000 0.000000 0.000000 0.000000 0.000000 10.000000 
Rope3_Seg04 0.000000 0.000000 0.000000 0.000000 0.000000 0.000000 10.000000 
Rope3_Seg05 0.000000 0.000000 0.000000 0.000000 0.000000 0.000000 10.000000 
Rope3_Seg06 0.000000 0.000000 0.000000 0.000000 0.000000 0.000000 10.000000 
Rope3_Seg07 0.000000 0.000000 0.000000 0.000000 0.000000 0.000000 10.000000 
Rope3_Seg08 0.000000 0.000000 0.000000 0.000000 0.000000 0.000000 10.000000 
Rope3_Seg09 0.000000 0.000000 0.000000 0.000000 0.000000 0.000000 10.000000 
R_rear_hand01 0.000000 0.000000 0.000000 0.000000 0.000000 0.000000 10.000000 
R_rear_hand02 0.000000 0.000000 0.000000 0.000000 0.000000 0.000000 10.000000 
R_rear_hand03 0.000000 0.000000 0.000000 0.000000 0.000000 0.000000 10.000000 
Rope4_Seg01 0.000000 0.000000 0.000000 0.000000 0.000000 0.000000 10.000000 
Rope4_Seg02 0.000000 0.000000 0.000000 0.000000 0.000000 0.000000 10.000000 
Rope4_Seg03 0.000000 0.000000 0.000000 0.000000 0.000000 0.000000 10.000000 
Rope4_Seg04 0.000000 0.000000 0.000000 0.000000 0.000000 0.000000 10.000000 
Rope4_Seg05 0.000000 0.000000 0.000000 0.000000 0.000000 0.000000 10.000000 
Rope4_Seg06 0.000000 0.000000 0.000000 0.000000 0.000000 0.000000 10.000000 
Rope4_Seg07 0.000000 0.000000 0.000000 0.000000 0.000000 0.000000 10.000000 
Rope4_Seg08 0.000000 0.000000 0.000000 0.000000 0.000000 0.000000 10.000000 
Rope4_Seg09 0.000000 0.000000 0.000000 0.000000 0.000000 0.000000 10.000000 
L_rear_hand01 0.000000 0.000000 0.000000 0.000000 0.000000 0.000000 10.000000 
L_rear_hand02 0.000000 0.000000 0.000000 0.000000 0.000000 0.000000 10.000000 
L_rear_hand03 0.000000 0.000000 0.000000 0.000000 0.000000 0.000000 10.000000 
#Beginning of Data. Separated by tabs
#Fr	Tx	Ty	Tz	Rx	Ry	Rz	SF
[MASTER]
1 0.000000 0.000000 0.000000 0.001660 0.001660 0.001660 0.000000
2 0.000000 0.000000 0.000000 0.001660 0.001660 0.001660 0.000000
[root]
1 -0.000001 -0.000005 1500.000000 -78.201385 -18.282429 -85.262383 1500.000000
2 -0.352926 -2.996559 1485.060059 -80.713806 -18.077955 -82.274216 1485.063232
[chest]
1 -84.512650 -34.090519 0.000000 1.816438 0.036634 177.896622 91.129311
2 -84.512650 -34.090519 0.000000 2.307003 -0.045398 178.978409 91.129311
[L_mid_tent01]
1 27.299492 22.177565 -249.918274 -2.000525 21.339958 67.299889 252.381165
2 27.299496 22.177557 -249.918274 -1.716267 21.888165 67.393951 252.381165
[R_mid_tent01]
1 23.228794 24.509907 226.238495 171.429779 -24.868172 61.454594 228.744751
2 23.228794 24.509907 226.238495 171.106064 -24.353706 60.792244 228.744751
[spine01]
1 -0.361383 -0.195265 0.000000 0.001845 0.001451 13.654368 0.410763
2 -0.361383 -0.195265 0.000000 0.001845 0.001451 13.654368 0.410763
[Bip01_Neck]
1 165.484543 71.581718 0.000119 176.643677 -1.657967 43.431911 180.302734
2 165.484543 71.581718 0.000119 176.643677 -1.657967 43.431915 180.302734
[L_humerus]
1 -13.983130 -135.272980 -120.471481 151.279266 79.112244 -112.242180 181.680161
2 -13.983130 -135.272980 -120.471481 149.916473 80.453049 -112.935234 181.680161
[R_humerus]
1 -13.983309 -135.273102 125.287651 -172.610809 -66.139587 -92.306168 184.909012
2 -13.983309 -135.273102 125.287651 -172.621292 -66.098145 -92.294029 184.909012
[weapon_bone]
1 235.964890 -300.705902 0.000000 0.000000 -89.951546 -128.212341 382.234833
2 235.964890 -300.705902 0.000000 0.000000 -89.951546 -128.212341 382.234833
[Bip01_Head]
1 213.636230 185.181107 18.674242 4.968350 4.405919 -43.886684 283.339386
2 213.673859 185.076294 20.027466 4.962490 2.797837 -43.898743 283.391693
[eye_left_bone]
1 -24.626970 125.451866 -64.772606 0.000000 -90.000000 -99.840431 143.318359
2 -24.626970 125.451866 -64.772606 0.000000 -90.000000 -99.840431 143.318359
[eye_right_bone]
1 -24.626970 125.451866 64.327362 0.000000 -89.965736 80.156380 143.117676
2 -24.626970 125.451866 64.327362 0.000000 -89.980217 80.156380 143.117676
[L_forearm]
1 322.776093 0.000000 -0.000119 0.000019 0.002347 -89.052673 322.776093
2 322.776093 0.000000 -0.000119 0.000006 -0.002347 -90.300369 322.776093
[L_front_hand]
1 241.149185 -0.042021 -3.300071 -178.667953 -1.835447 -27.422350 241.171753
2 241.149185 -0.042021 -3.300071 -178.667953 -1.835447 -27.422350 241.171753
[L_weapon_bone]
1 156.183838 0.000000 0.000000 0.000014 0.000007 0.000001 156.183838
2 156.183838 0.000000 0.000000 0.000014 0.000007 0.000001 156.183838
[L_front_hand01_01]
1 86.095154 20.947098 -0.655860 -0.304872 -0.514302 68.276070 88.609184
2 86.095154 20.947098 -0.655860 -0.289102 -0.524108 66.611084 88.609184
[L_front_hand02_01]
1 86.935165 -11.437475 24.513514 144.546585 -56.255680 -49.772907 91.046425
2 86.935165 -11.437475 24.513514 142.580521 -55.269005 -47.395390 91.046425
[L_front_hand03_01]
1 86.637497 -14.123976 -20.424902 -144.732666 54.475910 -51.681892 90.126129
2 86.637497 -14.123976 -20.424902 -142.879868 53.494274 -49.391991 90.126129
[L_front_hand01_02]
1 71.020905 -0.000179 0.000030 0.000315 -0.002326 -105.444061 71.020905
2 71.020905 -0.000179 0.000030 0.000315 -0.002326 -105.429550 71.020905
[L_front_hand02_02]
1 71.020927 -0.000119 0.000060 0.000315 -0.002326 -105.444061 71.020927
2 71.020927 -0.000119 0.000060 0.000315 -0.002326 -105.429550 71.020927
[L_front_hand03_02]
1 71.020905 -0.000060 0.000060 0.000315 -0.002326 -105.444061 71.020905
2 71.020905 -0.000060 0.000060 0.000315 -0.002326 -105.429550 71.020905
[R_forearm]
1 322.776428 -0.000060 0.000030 0.209222 -0.019759 -85.559830 322.776428
2 322.776428 -0.000060 0.000030 0.213005 -0.014262 -86.710716 322.776428
[R_front_hand]
1 238.847015 -0.006795 2.210259 -2.635298 -10.645461 -26.312506 238.857239
2 238.847015 -0.006795 2.210259 -2.635298 -10.645461 -26.312504 238.857239
[R_weapon_bone]
1 155.664093 0.002503 -0.000030 0.003487 0.001180 -90.988930 155.664078
2 155.664093 0.002503 -0.000030 0.003487 0.001180 -90.988930 155.664078
[R_front_hand01_01]
1 87.624611 14.231146 22.918642 -144.302139 -56.138653 49.586014 91.683487
2 87.624611 14.231146 22.918642 -141.947067 -54.924732 46.726727 91.683487
[R_front_hand02_01]
1 89.356956 14.367283 -19.491137 144.866989 54.526855 52.081070 92.579636
2 89.356956 14.367283 -19.491137 142.634140 53.329136 49.315861 92.579636
[R_front_hand03_01]
1 87.286232 -22.307278 -0.143439 0.104166 -0.441299 -68.306496 90.091743
2 87.286232 -22.307278 -0.143439 0.092230 -0.445770 -66.286453 90.091743
[R_front_hand01_02]
1 71.020905 0.000060 0.000119 0.002323 -0.000334 106.381714 71.020905
2 71.020905 0.000060 0.000119 0.002323 -0.000334 106.381721 71.020905
[R_front_hand02_02]
1 71.020844 -0.000030 -0.000119 0.002323 -0.000334 106.381714 71.020836
2 71.020844 -0.000030 -0.000119 0.002323 -0.000334 106.381721 71.020836
[R_front_hand03_02]
1 71.020905 0.000000 0.000030 0.002323 -0.000334 106.381714 71.020905
2 71.020905 0.000000 0.000030 0.002323 -0.000334 106.381721 71.020905
[null_rope01_connect]
1 328.732483 0.000000 -0.000238 -148.042908 -82.569214 -171.741455 328.732483
2 328.732483 0.000000 -0.000238 -165.562317 -80.767197 -154.028198 328.732483
[Rope1_Seg01]
1 0.000000 0.000000 0.000000 93.543480 9.797328 -136.825974 0.000000
2 0.000000 0.000000 0.000000 78.686974 -3.440146 -137.553848 0.000000
[Rope1_Seg02]
1 139.999863 -0.000179 0.000000 32.059113 -3.665663 -11.232783 139.999863
2 139.999863 -0.000179 0.000000 15.668856 -1.676010 -10.257311 139.999863
[Rope1_Seg03]
1 139.999924 0.000060 -0.000060 57.482414 -15.660608 -18.595264 139.999924
2 139.999924 0.000060 -0.000060 56.673111 -8.437791 -24.934328 139.999924
[Rope1_Seg04]
1 139.999924 -0.000060 -0.000119 16.671196 -30.964951 5.295606 139.999924
2 139.999924 -0.000060 -0.000119 41.746323 -40.452950 -14.602715 139.999924
[Rope1_Seg05]
1 139.999832 0.000119 -0.000060 -9.507607 -10.699600 49.385448 139.999832
2 139.999832 0.000119 -0.000060 -8.265006 -15.379597 39.524712 139.999832
[Rope1_Seg06]
1 139.999954 0.000119 -0.000060 2.742034 -7.270630 22.343307 139.999954
2 139.999954 0.000119 -0.000060 0.683331 -8.351098 18.580160 139.999954
[Rope1_Seg07]
1 139.999985 0.000060 0.000000 2.206274 -2.489868 7.355774 139.999985
2 139.999985 0.000060 0.000000 0.891058 -3.617905 6.672390 139.999985
[Rope1_Seg09]
1 121.602913 0.000119 -0.000089 -89.793175 -1.359789 0.847147 121.602913
2 121.602913 0.000119 -0.000089 -89.793175 -1.359789 0.847147 121.602913
[L_mid_hand01]
1 103.859421 1.038730 8.195221 111.216118 -46.770245 -16.325294 104.187431
2 103.859421 1.038730 8.195221 110.016693 -43.583382 -14.630747 104.187431
[L_mid_hand02]
1 105.572853 -4.139662 -10.864139 -150.384232 34.904892 -44.592522 106.211075
2 105.572853 -4.139662 -10.864139 -148.402451 33.171711 -41.059570 106.211075
[L_mid_hand03]
1 104.641464 17.579376 -3.913581 -12.781255 13.855397 50.452671 106.179977
2 104.641464 17.579376 -3.913581 -13.575854 13.082141 47.042400 106.179977
[null_rope02_connect]
1 328.732849 0.000179 -0.000119 -123.156265 51.007931 6.932772 328.732849
2 328.732849 0.000179 -0.000119 -118.079018 50.820553 12.330953 328.732849
[Rope2_Seg01]
1 0.000076 0.000110 0.000153 50.384361 -18.071299 -60.288277 0.000203
2 0.000076 0.000110 0.000153 43.599247 -17.597157 -55.161156 0.000203
[Rope2_Seg02]
1 139.999741 -0.000060 -0.000119 -32.710545 23.960064 10.636953 139.999756
2 139.999741 -0.000060 -0.000119 -50.480373 31.908369 19.892202 139.999756
[Rope2_Seg03]
1 140.000107 0.000030 0.000000 -47.641430 25.145773 59.392532 140.000107
2 140.000107 0.000030 0.000000 -36.842598 0.366818 65.888557 140.000107
[Rope2_Seg04]
1 139.999802 0.000000 -0.000060 -5.619233 -14.239470 20.042282 139.999802
2 139.999802 0.000000 -0.000060 -1.288979 -9.041330 12.736154 139.999802
[Rope2_Seg05]
1 139.999985 -0.000060 0.000119 -0.372866 0.380926 9.750340 139.999985
2 139.999985 -0.000060 0.000119 0.838940 1.798290 7.846172 139.999985
[Rope2_Seg06]
1 139.999893 -0.000030 -0.000119 0.945328 7.683218 17.281038 139.999893
2 139.999893 -0.000030 -0.000119 2.394723 9.340614 13.748757 139.999893
[Rope2_Seg07]
1 139.999893 0.000060 -0.000060 0.854258 5.667386 16.701254 139.999893
2 139.999893 0.000060 -0.000060 1.429504 7.613397 13.446442 139.999893
[Rope2_Seg09]
1 121.338966 0.000089 -0.000060 33.793236 -1.359788 -0.847141 121.338966
2 121.338966 0.000089 -0.000060 33.793236 -1.359788 -0.847141 121.338966
[R_mid_hand01]
1 104.680779 11.144459 -10.335981 -27.387493 40.402237 54.098232 105.778534
2 104.680779 11.144459 -10.335981 -29.481638 39.038574 50.818577 105.778534
[R_mid_hand02]
1 104.070427 2.443552 8.231699 62.946606 -56.952805 23.709984 104.424065
2 104.070427 2.443552 8.231699 64.792824 -54.379646 21.475639 104.424065
[R_mid_hand03]
1 106.028137 -11.221827 -5.996406 -173.630432 14.503003 -63.260223 106.788818
2 106.028137 -11.221827 -5.996406 -172.901596 14.168235 -60.324333 106.788818
[spine02]
1 129.756927 0.001550 0.000119 -1.023899 -3.926965 6.770993 129.756927
2 129.756927 0.001550 0.000119 -1.023900 -3.926965 6.770994 129.756927
[spine03]
1 78.613846 0.087372 -4.898873 1.040681 4.146420 4.212376 78.766380
2 78.613846 0.087372 -4.898873 1.040681 4.146420 4.212376 78.766380
[pelvis]
1 169.435242 0.051022 0.000000 0.019518 -0.190233 -10.721436 169.435257
2 169.435242 0.051022 0.000000 0.019518 -0.190233 -10.721436 169.435257
[null_rope03_connect]
1 -1.257226 -2.466202 137.391083 37.171329 -76.265411 56.834244 137.418976
2 -1.257226 -2.466202 137.391083 50.663364 -76.462288 43.002460 137.418976
[null_rope04_connect]
1 -1.259640 -2.480268 -137.844437 37.171329 -76.265411 56.834244 137.872513
2 -1.259640 -2.480268 -137.844437 50.663364 -76.462288 43.002460 137.872513
[Rope3_Seg01]
1 0.000000 0.000000 0.000000 -139.879074 -52.471588 -73.707649 0.000000
2 0.000000 0.000000 0.000000 -145.903458 -50.267452 -64.936165 0.000000
[Rope3_Seg02]
1 139.999924 -0.000119 0.000060 0.220001 -11.690926 -25.898342 139.999924
2 139.999924 -0.000119 0.000060 3.047730 -14.994290 -24.999361 139.999924
[Rope3_Seg03]
1 139.999924 -0.000119 0.000119 6.781057 -10.224213 -7.115260 139.999924
2 139.999924 -0.000119 0.000119 12.345565 -12.618349 -7.632236 139.999924
[Rope3_Seg04]
1 139.999924 0.000119 0.000000 -10.425853 -3.000201 -13.438898 139.999924
2 139.999924 0.000119 0.000000 -11.054669 -7.240406 -15.732696 139.999924
[Rope3_Seg05]
1 139.999924 -0.000238 0.000060 -84.019012 7.272354 -30.018436 139.999924
2 139.999924 -0.000238 0.000060 -130.846817 0.588196 -33.805977 139.999924
[Rope3_Seg06]
1 139.999893 -0.000119 -0.000060 -21.030699 19.856649 2.463864 139.999893
2 139.999893 -0.000119 -0.000060 -4.029192 12.993531 11.543145 139.999893
[Rope3_Seg07]
1 139.999771 0.000060 -0.000119 -3.593263 7.345898 3.559753 139.999771
2 139.999771 0.000060 -0.000119 -0.668930 5.421398 5.304480 139.999771
[Rope3_Seg08]
1 139.999985 -0.000060 0.000000 -1.100401 3.782516 2.147796 139.999985
2 139.999985 -0.000060 0.000000 0.042708 2.835644 2.857548 139.999985
[Rope3_Seg09]
1 90.185997 -0.000179 -0.000060 89.793228 -1.359877 -0.847183 90.185997
2 90.185997 -0.000179 -0.000060 89.793228 -1.359877 -0.847183 90.185997
[R_rear_hand01]
1 103.366196 -6.073594 -10.757982 -170.781860 22.977863 -56.828854 104.101845
2 103.366196 -6.073594 -10.757982 -169.405167 22.402496 -53.260654 104.101845
[R_rear_hand02]
1 100.509819 12.039542 -7.992327 -23.183943 31.963840 54.048744 101.543350
2 100.509819 12.039542 -7.992327 -25.038765 30.595232 50.476662 101.543350
[R_rear_hand03]
1 101.539970 5.215704 5.435467 79.633385 -56.562832 12.541141 101.819031
2 101.539970 5.215704 5.435467 80.458870 -53.275658 11.535563 101.819031
[Rope4_Seg01]
1 -0.000019 -0.000076 -0.000153 46.312962 -20.181231 -91.711113 0.000172
2 -0.000018 -0.000075 -0.000146 44.089043 -17.725163 -84.838440 0.000165
[Rope4_Seg02]
1 139.999985 0.000060 0.000119 3.088581 -27.698858 -8.980927 139.999985
2 139.999985 0.000060 0.000119 2.439968 -27.173738 -8.931484 139.999985
[Rope4_Seg03]
1 139.999924 0.000000 -0.000238 8.005774 -30.865700 -10.745466 139.999924
2 139.999924 0.000000 -0.000238 7.599872 -32.983410 -11.673240 139.999924
[Rope4_Seg04]
1 139.999985 0.000000 0.000119 14.874035 -17.839432 -3.602525 139.999985
2 139.999985 0.000000 0.000119 8.483253 -16.453171 -3.942955 139.999985
[Rope4_Seg05]
1 139.999802 -0.000060 -0.000119 123.293137 -33.783524 5.055546 139.999802
2 139.999802 -0.000060 -0.000119 95.885864 -24.934530 -0.955776 139.999802
[Rope4_Seg06]
1 139.999924 0.000000 0.000060 15.652519 19.191053 22.087351 139.999924
2 139.999924 0.000000 0.000060 48.213974 2.198839 31.620237 139.999924
[Rope4_Seg07]
1 139.999802 0.000000 0.000000 1.766830 7.557994 5.533497 139.999802
2 139.999802 0.000000 0.000000 3.877214 10.063069 8.158357 139.999802
[Rope4_Seg08]
1 139.999924 0.000000 0.000119 -0.933608 3.738649 2.584220 139.999924
2 139.999924 0.000000 0.000119 -0.437170 4.905223 3.513033 139.999924
[Rope4_Seg09]
1 90.185791 0.000060 0.000060 -135.617828 2.228885 0.850567 90.185791
2 90.185791 0.000060 0.000060 -135.617828 2.228885 0.850567 90.185791
[L_rear_hand01]
1 101.696655 -8.392275 -7.654577 -31.684452 -23.583008 144.025742 102.329041
2 101.696655 -8.392275 -7.654577 -31.684452 -23.583006 144.025742 102.329041
[L_rear_hand02]
1 102.726799 -1.568258 5.773216 82.701553 38.753956 171.553619 102.900848
2 102.726799 -1.568258 5.773216 82.701553 38.753956 171.553619 102.900848
[L_rear_hand03]
1 104.552910 9.721220 -10.420293 -163.975403 -19.004421 -142.009338 105.519653
2 104.552910 9.721220 -10.420293 -163.975388 -19.004423 -142.009338 105.519653
